<svg version="1.1" xmlns="http://www.w3.org/2000/svg" xmlns:xlink="http://www.w3.org/1999/xlink" width="632.6756" height="466.10877" viewBox="0,0,632.6756,466.10877"><g transform="translate(146.54021,81.87625)"><g stroke="none" stroke-width="0" stroke-miterlimit="10"><path d="M-146.54021,384.23252l61.35181,-462.43462l297.65801,-3.67415l-61.35181,462.43463z" fill="#57caf2"/><path d="M473.33524,263.83276c-51.179,0 -156.10478,-47.37395 -156.10478,-105.81269c0,-58.43874 104.92578,-105.81269 156.10478,-105.81269c2.11311,0 5.42285,-0.89115 7.32991,-0.54884c-0.06146,5.43485 1.57759,11.46521 -0.74319,17.27201c-1.61047,-1.032 -3.00948,-1.91754 -3.64502,-2.29263l-0.07534,-0.13184l-0.28628,-0.07157c-1.4044,-0.752 -4.21734,-1.76677 -7.82862,-2.37137c0,0 -6.21755,-0.13932 -9.50212,0.05734c-3.53699,0.21177 -11.01869,1.17131 -11.01869,1.17131c0,0 -7.97892,1.56415 -11.59472,2.41429c-3.25144,0.76448 -9.12331,2.45692 -9.12331,2.45692c0,0 -7.75527,2.42231 -11.50079,3.79046c-3.7245,1.36047 -10.90961,4.39551 -10.90961,4.39551c0,0 -9.16083,3.92561 -13.22684,5.95694c-3.57238,1.78472 -9.88057,5.58724 -9.88057,5.58724c0,0 -3.21017,1.76499 -6.78307,3.93061c-2.65871,1.6115 -5.51826,3.48636 -7.40537,4.79969c-4.21793,2.93546 -11.89641,8.93352 -11.89641,8.93352c0,0 -6.66068,5.86912 -9.80977,9.26373c-1.35382,1.45937 -3.20074,3.66275 -4.92431,5.77456c-2.55771,3.13384 -4.70427,6.25206 -4.70427,6.25206c0,0 -3.2007,4.71308 -5.70775,10.8144c-1.57573,3.83479 -2.70747,8.20075 -3.42649,11.94778c-0.83177,4.33463 -0.52793,9.92533 0.29873,14.41597c0.81879,4.44784 2.15656,7.81648 2.15656,7.81648l3.75227,8.78839l6.85346,10.13474l6.32831,6.98675l4.8997,4.94539l8.757,7.41334c0,0 13.85042,9.95696 21.44223,14.19495c7.62454,4.25626 23.71821,11.66964 23.71821,11.66964c0,0 10.45857,4.07639 15.61899,5.79707c4.92486,1.64213 14.66989,4.30236 14.66989,4.30236c0,0 8.64935,2.08207 12.87006,2.78034c4.0865,0.67607 12.06459,1.34486 12.06459,1.34486l7.10287,-0.13255c0,0 3.724,-0.67082 5.35908,-1.19495c1.55381,-0.49808 4.22003,-1.87568 4.22003,-1.87568l3.17504,-2.0003c0.25295,1.90713 -0.16034,8.03064 0.08327,9.93894c0.25842,2.02436 0.46286,4.05549 0.70221,6.07945c-2.31296,0.5357 -4.77963,0.81806 -7.40989,0.81806z" fill="#9f6001"/><path d="M187.41147,42.80708v-42.62937h298.72392v42.62937z" fill="#57caf2"/><path d="M436.44423,67.66599l13.87705,-6.94795h30.17051v44.04071z" fill="#686868"/></g></g></svg>